<svg xmlns="http://www.w3.org/2000/svg" viewBox="0 0 262.22 70.67"><defs><style>.cls-1{fill:#2cffa2;}</style></defs><title>logo</title><g id="Ebene_2" data-name="Ebene 2"><g id="Ebene_1-2" data-name="Ebene 1"><path d="M19.88,26.34,16.36,41.81H12.69l-2.7-13-2.79,13H3.61L0,26.34H2.7l2.79,13.6,3.05-13.6h3l2.91,13.6,2.82-13.6Z"/><path d="M26,19.44a1.79,1.79,0,0,1,.53,1.32A1.75,1.75,0,0,1,26,22.07a1.9,1.9,0,0,1-1.38.51,1.86,1.86,0,0,1-1.35-.51,1.74,1.74,0,0,1-.53-1.31,1.79,1.79,0,0,1,.53-1.32,1.83,1.83,0,0,1,1.35-.53A1.87,1.87,0,0,1,26,19.44Zm0,6.9V41.81h-2.7V26.34Z"/><path d="M39.79,26.16l-.5,2.64a5.58,5.58,0,0,0-1.35-.18,2.87,2.87,0,0,0-2.32,1.06A7.85,7.85,0,0,0,34.24,33v8.84h-2.7V26.34h2.32l.26,3.14a5.87,5.87,0,0,1,1.67-2.61A3.74,3.74,0,0,1,38.26,26,6.28,6.28,0,0,1,39.79,26.16Z"/><path d="M40.87,33.77V31.48h8.31v2.29Z"/><path d="M65,28.12a9.92,9.92,0,0,1,1.56,5.95,11.39,11.39,0,0,1-.73,4.24,6.36,6.36,0,0,1-2.11,2.85,5.31,5.31,0,0,1-3.23,1,5.11,5.11,0,0,1-4.11-2.06l-.26,1.7H53.74V20.11l2.7-.32v8.49A5.18,5.18,0,0,1,60.81,26,4.94,4.94,0,0,1,65,28.12ZM62.65,38.57a8,8,0,0,0,1-4.51,8.36,8.36,0,0,0-.94-4.54A3,3,0,0,0,60,28.13q-2.06,0-3.61,2.41v7.4a4.79,4.79,0,0,0,1.51,1.53,3.52,3.52,0,0,0,1.89.56A3.23,3.23,0,0,0,62.65,38.57Z"/><path d="M71.9,41.27A3.46,3.46,0,0,1,71,38.76V20.11l2.7-.32V38.7a1.58,1.58,0,0,0,.22.94.88.88,0,0,0,.75.29,2.67,2.67,0,0,0,1-.18l.71,1.88a4.4,4.4,0,0,1-2.14.53A3.13,3.13,0,0,1,71.9,41.27Z"/><path d="M91.26,35H81.4a6,6,0,0,0,1.29,3.76A3.75,3.75,0,0,0,85.57,40a6.3,6.3,0,0,0,2.06-.32,8.32,8.32,0,0,0,2-1l1.17,1.62a8.56,8.56,0,0,1-5.4,1.94,6.26,6.26,0,0,1-5-2.12,8.67,8.67,0,0,1-1.81-5.81A11,11,0,0,1,79.3,30,6.7,6.7,0,0,1,81.53,27,5.66,5.66,0,0,1,84.95,26a5.74,5.74,0,0,1,4.73,2,8.67,8.67,0,0,1,1.64,5.61Q91.32,34.3,91.26,35Zm-2.61-2.17a5.72,5.72,0,0,0-.91-3.49A3.21,3.21,0,0,0,85,28.13q-3.32,0-3.61,4.87h7.25Z"/><path d="M98.34,19.44a1.79,1.79,0,0,1,.53,1.32,1.75,1.75,0,0,1-.53,1.31,1.9,1.9,0,0,1-1.38.51,1.86,1.86,0,0,1-1.35-.51,1.74,1.74,0,0,1-.53-1.31,1.79,1.79,0,0,1,.53-1.32A1.83,1.83,0,0,1,97,18.91,1.87,1.87,0,0,1,98.34,19.44Zm0,6.9V41.81h-2.7V26.34Z"/><path d="M115.19,28.12a9.92,9.92,0,0,1,1.56,5.95,11.39,11.39,0,0,1-.73,4.24,6.36,6.36,0,0,1-2.11,2.85,5.31,5.31,0,0,1-3.23,1,5.11,5.11,0,0,1-4.11-2.06l-.26,1.7h-2.38V20.11l2.7-.32v8.49A5.18,5.18,0,0,1,111,26,4.94,4.94,0,0,1,115.19,28.12Zm-2.36,10.45a8,8,0,0,0,1-4.51,8.36,8.36,0,0,0-.94-4.54,3,3,0,0,0-2.67-1.39q-2.06,0-3.61,2.41v7.4a4.79,4.79,0,0,0,1.51,1.53A3.52,3.52,0,0,0,110,40,3.23,3.23,0,0,0,112.83,38.57Z"/><path d="M133,35h-9.87a6,6,0,0,0,1.29,3.76,3.75,3.75,0,0,0,2.88,1.2,6.3,6.3,0,0,0,2.06-.32,8.32,8.32,0,0,0,2-1l1.17,1.62a8.56,8.56,0,0,1-5.4,1.94,6.26,6.26,0,0,1-5-2.12,8.67,8.67,0,0,1-1.81-5.81A11,11,0,0,1,121,30,6.7,6.7,0,0,1,123.25,27,5.66,5.66,0,0,1,126.68,26a5.74,5.74,0,0,1,4.73,2A8.67,8.67,0,0,1,133,33.62Q133,34.3,133,35Zm-2.61-2.17a5.72,5.72,0,0,0-.91-3.49,3.21,3.21,0,0,0-2.73-1.2q-3.32,0-3.61,4.87h7.25Z"/><path d="M148,27.25a4.85,4.85,0,0,1,1.19,3.46v11.1h-2.7V31.1a3.44,3.44,0,0,0-.62-2.32A2.35,2.35,0,0,0,144,28.1a3.52,3.52,0,0,0-2.17.7,7.31,7.31,0,0,0-1.76,2v11h-2.7V26.34h2.32l.23,2.29a6.1,6.1,0,0,1,2-1.94,5.27,5.27,0,0,1,2.69-.7A4.32,4.32,0,0,1,148,27.25Z"/><path d="M153.54,33.77V31.48h8.31v2.29Z"/><path d="M167.12,41.27a3.46,3.46,0,0,1-.87-2.51V20.11l2.7-.32V38.7a1.58,1.58,0,0,0,.22.94.88.88,0,0,0,.75.29,2.67,2.67,0,0,0,1-.18l.71,1.88a4.4,4.4,0,0,1-2.14.53A3.13,3.13,0,0,1,167.12,41.27Z"/><path d="M177.71,19.44a1.8,1.8,0,0,1,.53,1.32,1.75,1.75,0,0,1-.53,1.31,1.9,1.9,0,0,1-1.38.51,1.85,1.85,0,0,1-1.35-.51,1.74,1.74,0,0,1-.53-1.31,1.79,1.79,0,0,1,.53-1.32,1.83,1.83,0,0,1,1.35-.53A1.87,1.87,0,0,1,177.71,19.44Zm0,6.9V41.81H175V26.34Z"/><path d="M195.27,26.34V48.07l-2.7-.32v-8a5.46,5.46,0,0,1-1.89,1.78,5.06,5.06,0,0,1-2.51.63,5,5,0,0,1-4.3-2.17,9.91,9.91,0,0,1-1.54-5.84,11.38,11.38,0,0,1,.73-4.23A6.54,6.54,0,0,1,185.17,27a5.21,5.21,0,0,1,3.23-1,5.7,5.7,0,0,1,4.35,2.08l.21-1.73Zm-4.4,13.11a6.6,6.6,0,0,0,1.7-1.72V30.16a5.87,5.87,0,0,0-1.63-1.51,3.76,3.76,0,0,0-2-.51,3.14,3.14,0,0,0-2.78,1.5,8.2,8.2,0,0,0-1,4.46,8.65,8.65,0,0,0,.91,4.46A2.9,2.9,0,0,0,188.75,40,3.79,3.79,0,0,0,190.86,39.45Z"/><path d="M212.36,41.81H210l-.21-2.41a5.88,5.88,0,0,1-2,2.1,5.5,5.5,0,0,1-2.79.66,4.12,4.12,0,0,1-3.17-1.23,4.94,4.94,0,0,1-1.15-3.49V26.34h2.7V37.14a3.51,3.51,0,0,0,.56,2.25,2.26,2.26,0,0,0,1.82.66q2.26,0,3.88-2.67v-11h2.7Z"/><path d="M220.64,19.44a1.8,1.8,0,0,1,.53,1.32,1.75,1.75,0,0,1-.53,1.31,1.9,1.9,0,0,1-1.38.51,1.86,1.86,0,0,1-1.35-.51,1.74,1.74,0,0,1-.53-1.31,1.79,1.79,0,0,1,.53-1.32,1.83,1.83,0,0,1,1.35-.53A1.87,1.87,0,0,1,220.64,19.44Zm0,6.9V41.81h-2.7V26.34Z"/><path d="M228.39,38.67a2,2,0,0,1,.59,1.44,2,2,0,0,1-.59,1.45,2,2,0,0,1-1.47.6,1.93,1.93,0,0,1-1.44-.6,2,2,0,0,1-.59-1.45,2,2,0,0,1,2-2A2,2,0,0,1,228.39,38.67Z"/><path d="M245,20.11v21.7h-2.38l-.26-2.14a5.61,5.61,0,0,1-1.91,1.83A5.32,5.32,0,0,1,233.54,40,9.92,9.92,0,0,1,232,34.15a11.38,11.38,0,0,1,.73-4.23A6.54,6.54,0,0,1,234.85,27a5.21,5.21,0,0,1,3.23-1,5.55,5.55,0,0,1,4.17,1.91v-8.1Zm-4.4,19.34a6.63,6.63,0,0,0,1.7-1.72V30.16a5.88,5.88,0,0,0-1.63-1.51,3.76,3.76,0,0,0-2-.51,3.13,3.13,0,0,0-2.78,1.5,8.2,8.2,0,0,0-1,4.46,8.65,8.65,0,0,0,.91,4.46A2.9,2.9,0,0,0,238.43,40,3.8,3.8,0,0,0,240.55,39.45Z"/><path d="M262.16,35h-9.87a6,6,0,0,0,1.29,3.76,3.75,3.75,0,0,0,2.88,1.2,6.31,6.31,0,0,0,2.06-.32,8.33,8.33,0,0,0,2-1l1.17,1.62a8.56,8.56,0,0,1-5.4,1.94,6.26,6.26,0,0,1-5-2.12,8.66,8.66,0,0,1-1.81-5.81,11,11,0,0,1,.78-4.27A6.7,6.7,0,0,1,252.43,27,5.66,5.66,0,0,1,255.85,26a5.74,5.74,0,0,1,4.73,2,8.66,8.66,0,0,1,1.64,5.61Q262.22,34.3,262.16,35Zm-2.61-2.17a5.72,5.72,0,0,0-.91-3.49,3.21,3.21,0,0,0-2.73-1.2q-3.32,0-3.61,4.87h7.25Z"/><path class="cls-1" d="M178.56,51.38c-.1,1.81-1.63,2.09-2.7,2.69a111.16,111.16,0,0,1-20.55,9c-11.6,3.73-23.49,4.57-35.53,3.62-14-1.1-25-7.53-32.95-19.07-1-1.49-2.65-3.58-4.36-2.28s.62,2.81,1.44,4c10.2,15.29,25.4,20.89,42.86,21.31,17.88.43,34.53-4.56,50.05-13.27,3.45-1.93,5.46-2.67,5.07,2.52-.1,1.29,0,2.9,1.91,2.92,1.53,0,1.74-1.34,1.84-2.52a49.53,49.53,0,0,1,2.18-11.24c.7-2.18-.45-3.27-2.5-3.18-4.31.2-8.61.6-12.91,1-1,.09-2,.47-2,1.74s1,1.59,2,1.88C174.38,51,176.67,50,178.56,51.38ZM15.15,15.91a5.19,5.19,0,0,0,5.91-1C23.4,13,25.69,11.1,28.15,9.38,40.85.5,50.3,1.59,60.67,13c1.1,1.21,1.88,2.84,3.58,3.37a2.55,2.55,0,0,0,1.88-.17c.71-.44.19-1.12-.05-1.74-3.2-8-16.22-15.64-24.64-14.3C30.87,1.83,23.1,8.21,15.15,15.91Z"/><path class="cls-1" d="M178.56,51.38c-1.89-1.41-4.18-.35-6.19-.93-1-.29-2-.67-2-1.88s1-1.65,2-1.74c4.3-.36,8.6-.75,12.91-1,2-.1,3.19,1,2.5,3.18a49.53,49.53,0,0,0-2.18,11.24c-.09,1.17-.31,2.53-1.84,2.52-1.86,0-2-1.63-1.91-2.92.39-5.19-1.63-4.46-5.07-2.52-15.52,8.71-32.17,13.7-50.05,13.27-17.46-.42-32.66-6-42.86-21.31-.82-1.23-3.24-2.67-1.44-4s3.33.8,4.36,2.28c8,11.55,19,18,32.95,19.07,12,.95,23.93.11,35.53-3.62a111.16,111.16,0,0,0,20.55-9C176.93,53.47,178.45,53.2,178.56,51.38Z"/><path class="cls-1" d="M15.15,15.91C23.1,8.21,30.87,1.83,41.43.15c8.42-1.34,21.44,6.31,24.64,14.3.25.61.77,1.29.05,1.74a2.55,2.55,0,0,1-1.88.17c-1.71-.52-2.48-2.15-3.58-3.37C50.3,1.59,40.85.5,28.15,9.38,25.69,11.1,23.4,13,21.06,14.93A5.19,5.19,0,0,1,15.15,15.91Z"/></g></g></svg>