<?xml version="1.0" encoding="utf-8"?>
<!-- Generator: Adobe Illustrator 24.3.0, SVG Export Plug-In . SVG Version: 6.00 Build 0)  -->
<svg version="1.1" id="Ebene_1" xmlns="http://www.w3.org/2000/svg" xmlns:xlink="http://www.w3.org/1999/xlink" x="0px" y="0px"
	 viewBox="0 0 530.4 135.6" style="enable-background:new 0 0 530.4 135.6;" xml:space="preserve">
<style type="text/css">
	.st0{clip-path:url(#SVGID_4_);}
	.st1{fill:#021343;}
	.st2{fill:#FFF400;}
</style>
<g>
	<g>
		<defs>
			<rect id="SVGID_1_" x="-446.3" y="-305.7" width="1366" height="768"/>
		</defs>
		<clipPath id="SVGID_2_">
			<use xlink:href="#SVGID_1_"  style="overflow:visible;"/>
		</clipPath>
	</g>
	<g>
		<defs>
			<rect id="SVGID_3_" x="-446.3" y="-305.7" width="1366" height="768"/>
		</defs>
		<clipPath id="SVGID_4_">
			<use xlink:href="#SVGID_3_"  style="overflow:visible;"/>
		</clipPath>
		<g class="st0">
			<path class="st1" d="M57.9,14.2V10c0-0.8-0.4-1.2-1.2-1.2H39.9c-0.8,0-1.2,0.4-1.2,1.2v4.2c0,0.8,0.4,1.2,1.2,1.2h4.4v26.4
				c0,5.5-1,9.7-3.1,12.6c-2.1,2.9-5.7,4.3-11,4.3c-5.3,0-8.7-1.7-10.3-5c-0.8-1.7-1.4-3.5-1.7-5.3c-0.3-1.8-0.4-4.1-0.4-6.9V15.5
				h4.4c0.8,0,1.2-0.4,1.2-1.2V10c0-0.8-0.4-1.2-1.2-1.2H4.1c-0.8,0-1.2,0.4-1.2,1.2v4.2c0,0.8,0.4,1.2,1.2,1.2h4.4v29
				c0,7.3,1.6,12.8,4.8,16.3c3.2,3.6,8.9,5.4,17.1,5.4c4.2,0,7.8-0.6,10.8-1.9c3-1.3,5.2-3,6.8-5.2c2.9-4.2,4.3-9.4,4.3-15.5V15.5
				h4.4C57.5,15.5,57.9,15.1,57.9,14.2 M93.3,44.9c0,5.2-0.9,8.9-2.6,11.1c-1.7,2.2-4.2,3.3-7.4,3.3c-1.8,0-3.6-0.4-5.4-1.1
				c-1.8-0.7-3.2-1.5-4.1-2.4V39.9c0-2.8,1-5.1,3-6.7c2-1.6,4.1-2.5,6.4-2.5c2.3,0,4.2,0.4,5.5,1.1C91.8,33.5,93.3,37.8,93.3,44.9
				 M97.6,60.5c3.4-3.8,5.1-9.6,5.1-17.5c0-6.5-1.4-11.5-4.3-14.8c-2.9-3.4-6.9-5-12-5c-5.9,0-10.2,2.4-13.1,7.1l-0.8-5
				c-0.2-0.8-0.6-1.2-1.2-1.2H60c-0.8,0-1.2,0.4-1.2,1.2v4.3c0,0.8,0.4,1.2,1.2,1.2h4.5v46.9h-4.4c-0.8,0-1.2,0.4-1.2,1.2v4.1
				c0,0.8,0.4,1.2,1.2,1.2h22.5c0.8,0,1.2-0.4,1.2-1.2v-4.2c0-0.8-0.4-1.2-1.2-1.2h-8.8v-15c2.8,2.3,6.4,3.5,10.8,3.5
				C89.9,66.2,94.3,64.3,97.6,60.5 M143.8,48.7c0-2.1-0.4-4-1.1-5.7c-0.7-1.7-1.6-3.1-2.4-4.1c-0.9-1-2.2-2.1-4-3.1
				c-1.8-1.1-3.2-1.8-4.1-2.2c-0.9-0.4-2.8-1.1-5.6-2.2c-2.8-1.1-4.9-2.3-6.4-3.8c-1.5-1.5-2.2-3.4-2.2-5.7s0.8-4.1,2.5-5.4
				c1.6-1.3,3.8-2,6.5-2c2.7,0,5.2,0.7,7.4,2l-0.2,5.6c-0.1,0.8,0.3,1.2,1.2,1.2h4.7c0.8,0,1.2-0.4,1.2-1.2V10.7
				c0-0.8-0.4-1.3-1.2-1.5c-4.1-1.2-8.2-1.8-12.3-1.8c-5.9,0-10.5,1.6-13.8,4.7c-3.3,3.2-5,7.1-5,12c0,4.8,1.6,8.4,4.7,10.7
				c1.6,1.2,3.1,2.2,4.6,3c1.5,0.7,3.7,1.6,6.6,2.6c2.9,1,5.3,2.2,7.1,3.8c1.8,1.6,2.7,3.7,2.7,6.4c0,5.6-3.4,8.4-10.3,8.4
				c-1.8,0-3.5-0.3-5.2-0.9c-1.7-0.6-2.9-1.2-3.6-1.9l0.3-6.9c0.1-0.8-0.3-1.2-1.2-1.2H110c-0.8,0-1.2,0.4-1.2,1.2v13.2
				c0,0.8,0.4,1.3,1.2,1.5c4.6,1.4,9.3,2.2,14,2.2c6.4,0,11.3-1.5,14.8-4.6C142.1,58.5,143.8,54.2,143.8,48.7 M175.7,63.2
				c0-0.3,0-0.5-0.1-0.7l-1.5-3.8c-0.3-0.7-0.7-0.9-1.3-0.7c-1.7,0.8-3.5,1.2-5.3,1.2c-1.8,0-3.1-0.6-3.7-1.7c-0.7-1.2-1-3-1-5.7
				V30.9h8.4c0.8,0,1.2-0.4,1.2-1.2v-4.3c0-0.8-0.4-1.2-1.2-1.2h-8.4V12.8c0-0.8-0.4-1.2-1.2-1.2h-6.8c-0.8,0-1.2,0.4-1.2,1.2V24
				h-4.7c-0.8,0-1.2,0.4-1.2,1.2v4.3c0,0.8,0.4,1.2,1.2,1.2h4.7v20c0,2.3,0.1,4.5,0.3,6.6c0.2,1.6,0.8,3.2,1.9,4.8
				c1.6,2.6,4.8,3.8,9.7,3.8c3.7,0,6.8-0.7,9.5-2C175.5,63.9,175.7,63.5,175.7,63.2 M203.5,52.6c0,1.8-0.8,3.3-2.4,4.7
				c-1.6,1.4-3.9,2-6.7,2c-4.4,0-6.6-1.9-6.6-5.7c0-2.5,0.9-4.2,2.7-5.2c0.9-0.5,2-1,3.2-1.5c1.2-0.5,4.5-0.7,9.8-0.7V52.6z
				 M217.1,63.9v-4.1c0-0.8-0.4-1.2-1.2-1.2h-3.6V36.8c0-9.1-5-13.6-14.9-13.6c-4.7,0-8.6,0.9-11.6,2.8c-3,1.9-4.7,4.8-4.9,8.9
				c-0.1,0.8,0.3,1.2,1.2,1.2h5.3c0.7,0,1.1-0.4,1.2-1.2c0.8-3.5,3-5.3,6.8-5.3c2,0,3.5,0.2,4.6,0.7c2.2,1,3.3,3.5,3.3,7.4v2.9
				c-1.8,0.1-3.3,0.1-4.3,0.1c-5.2,0.2-9.6,1.1-13.3,2.8c-4.5,2-6.7,5.7-6.7,11.1c0,4.1,1.2,7.1,3.5,8.9c2.3,1.9,5.3,2.8,8.8,2.8
				c5.7,0,10-2,13-6.1l0.6,3.8c0.1,0.8,0.5,1.2,1.2,1.2h9.8C216.7,65.2,217.1,64.8,217.1,63.9 M247.5,63.2c0-0.3,0-0.5-0.1-0.7
				l-1.5-3.8c-0.3-0.7-0.7-0.9-1.3-0.7c-1.7,0.8-3.5,1.2-5.3,1.2c-1.8,0-3.1-0.6-3.7-1.7c-0.7-1.2-1-3-1-5.7V30.9h8.4
				c0.8,0,1.2-0.4,1.2-1.2v-4.3c0-0.8-0.4-1.2-1.2-1.2h-8.4V12.8c0-0.8-0.4-1.2-1.2-1.2h-6.8c-0.8,0-1.2,0.4-1.2,1.2V24h-4.7
				c-0.8,0-1.2,0.4-1.2,1.2v4.3c0,0.8,0.4,1.2,1.2,1.2h4.7v20c0,2.3,0.1,4.5,0.3,6.6c0.2,1.6,0.8,3.2,1.9,4.8
				c1.6,2.6,4.8,3.8,9.7,3.8c3.7,0,6.8-0.7,9.5-2C247.2,63.9,247.5,63.5,247.5,63.2 M276.6,40.5h-17.3c0.1-2.8,0.8-5.2,2.2-7.3
				c1.4-2.1,3.7-3.1,6.9-3.1C274,30.1,276.8,33.6,276.6,40.5 M285,46.3c0.2-0.2,0.3-1.5,0.3-3.8c0-4.9-1.1-9.3-3.3-13.1
				c-1.2-1.9-2.8-3.5-5-4.6c-2.2-1.1-4.8-1.7-7.9-1.7c-6.2,0-10.9,2.1-14.1,6.2c-3.3,4.2-4.9,9.4-4.9,15.8s1.5,11.4,4.6,15.3
				c3.1,3.9,7.9,5.8,14.5,5.8c1.2,0,2.4-0.1,3.5-0.2l4.8-7.9c-2.2,0.7-4.4,1.1-6.5,1.1c-4.2,0-7.1-1.1-8.8-3.3
				c-1.7-2.2-2.7-5.3-3-9.3h24.4C284.4,46.7,284.8,46.5,285,46.3"/>
		</g>
		<g class="st0">
			<path class="st1" d="M296.3,43.8c-1,1.6-0.3,2.9,1.6,2.9h23.9c1.9,0,2.6-1.3,1.7-2.9l-11.7-19.5c-1-1.6-2.6-1.6-3.5,0L296.3,43.8
				z"/>
		</g>
	</g>
	<g>
		<defs>
			<rect id="SVGID_5_" x="-446.3" y="-305.7" width="1366" height="768"/>
		</defs>
		<clipPath id="SVGID_6_">
			<use xlink:href="#SVGID_5_"  style="overflow:visible;"/>
		</clipPath>
	</g>
</g>
<path class="st2" d="M351.8,135.6C351.8,135.6,351.8,135.6,351.8,135.6c-5,0-9-4.1-9-9L343.4,9c0-5,4.1-9,9-9c5,0,9,4.1,9,9
	l-0.6,117.6C360.8,131.6,356.8,135.6,351.8,135.6z"/>
<g>
	<g>
		<g>
			<path class="st1" d="M385,28.6c-0.3,0-0.4-0.1-0.4-0.2c0-0.1,0-0.1,0-0.2l3.1-18.1h-1.6c-0.2,0-0.3,0-0.4-0.1s-0.1-0.2,0-0.4
				L386,8c0-0.3,0.2-0.5,0.6-0.5c3.9-0.1,6.3-0.2,7.2-0.2s1.8,0.1,2.9,0.4c1,0.2,2,0.7,3.1,1.2c1,0.6,1.8,1.4,2.4,2.6
				s0.9,2.5,0.9,4.1c0,4-1.2,7.1-3.6,9.5s-5.8,3.5-10.2,3.5H385z M391.2,9.9l-2.8,16.2h2c1.5,0,2.9-0.3,4.1-0.8
				c1.2-0.6,2.1-1.3,2.8-2.3c1.3-1.9,2-4,2-6.5s-0.5-4.1-1.5-5.2c-1-1-2.5-1.5-4.5-1.5H391.2z"/>
		</g>
		<g>
			<path class="st1" d="M406.6,13.2h4.3c0.2,0,0.3,0,0.4,0.1s0.1,0.2,0,0.4l-2.1,11.8c0,0.1,0,0.3,0,0.4c0,0.4,0.2,0.6,0.5,0.6
				c0.2,0,0.5-0.1,0.9-0.2c0.3-0.1,0.6-0.1,0.7,0.2l0.2,0.5c0.1,0.3,0.1,0.5-0.2,0.7c-1.1,0.9-2.2,1.3-3.4,1.3
				c-1.6,0-2.4-0.7-2.4-2.1c0-0.2,0-0.5,0.1-0.8l1.8-10.3h-1.3c-0.2,0-0.3,0-0.4-0.1c-0.1-0.1-0.1-0.2,0-0.4l0.3-1.6
				C406.1,13.4,406.3,13.2,406.6,13.2z M412.1,8.3c0,0.6-0.2,1.2-0.7,1.6c-0.5,0.4-1,0.7-1.7,0.7s-1.2-0.2-1.6-0.6
				c-0.4-0.4-0.6-0.9-0.6-1.5c0-0.6,0.2-1.2,0.7-1.6s1-0.7,1.7-0.7s1.1,0.2,1.5,0.6C411.9,7.1,412.1,7.6,412.1,8.3z"/>
		</g>
		<g>
			<path class="st1" d="M431.2,13.2c0.3,0,0.4,0.1,0.4,0.2c0,0.1,0,0.1,0,0.2l-0.3,1.6c0,0.2-0.1,0.3-0.2,0.4
				c-0.1,0.1-0.2,0.1-0.4,0.1l-1.4,0l-1.9,10.9c-0.2,1.5-0.5,2.8-0.7,3.8c-0.9,3.7-3.5,5.6-7.6,5.6c-2,0-3.7-0.3-5.1-1
				c-0.2-0.1-0.3-0.2-0.3-0.3c0-0.1,0-0.2,0.1-0.4l0.6-1.6c0.1-0.2,0.2-0.3,0.2-0.3c0.1,0,0.2,0,0.4,0.1c1.2,0.6,2.4,0.8,3.8,0.8
				c1.4,0,2.4-0.3,3.2-1c0.8-0.7,1.3-1.8,1.6-3.4l0.4-2.3c-0.5,0.7-1.2,1.2-2,1.6s-1.8,0.6-2.7,0.6c-1.6,0-2.9-0.5-3.8-1.4
				c-0.9-0.9-1.4-2.3-1.4-4.2c0-1.9,0.3-3.6,0.8-5.1s1.5-2.8,2.7-3.9c1.3-1,2.8-1.6,4.6-1.6s3.2,0.6,4.3,1.9l0.2-1.1
				c0-0.2,0.1-0.3,0.2-0.4s0.2-0.1,0.4-0.1H431.2z M425.6,17.2c-0.8-1.1-1.9-1.6-3.3-1.6c-0.9,0-1.7,0.2-2.3,0.7
				c-0.7,0.5-1.2,1.1-1.5,1.8c-0.7,1.5-1,3.1-1,4.8c0,2.3,1,3.4,3.1,3.4c0.9,0,1.8-0.3,2.6-0.9c0.8-0.6,1.3-1.4,1.5-2.5L425.6,17.2z
				"/>
		</g>
		<g>
			<path class="st1" d="M434,13.2h4.3c0.2,0,0.3,0,0.4,0.1s0.1,0.2,0,0.4l-2.1,11.8c0,0.1,0,0.3,0,0.4c0,0.4,0.2,0.6,0.5,0.6
				c0.2,0,0.5-0.1,0.9-0.2c0.3-0.1,0.6-0.1,0.7,0.2l0.2,0.5c0.1,0.3,0.1,0.5-0.2,0.7c-1.1,0.9-2.2,1.3-3.4,1.3
				c-1.6,0-2.4-0.7-2.4-2.1c0-0.2,0-0.5,0.1-0.8l1.8-10.3h-1.3c-0.2,0-0.3,0-0.4-0.1c-0.1-0.1-0.1-0.2,0-0.4l0.3-1.6
				C433.4,13.4,433.6,13.2,434,13.2z M439.4,8.3c0,0.6-0.2,1.2-0.7,1.6c-0.5,0.4-1,0.7-1.7,0.7s-1.2-0.2-1.6-0.6
				c-0.4-0.4-0.6-0.9-0.6-1.5c0-0.6,0.2-1.2,0.7-1.6s1-0.7,1.7-0.7s1.1,0.2,1.5,0.6C439.3,7.1,439.4,7.6,439.4,8.3z"/>
		</g>
		<g>
			<path class="st1" d="M451.3,13.2c0.3,0,0.4,0.1,0.4,0.2c0,0.1,0,0.1,0,0.2l-0.3,1.6c0,0.2-0.1,0.3-0.2,0.4
				c-0.1,0.1-0.2,0.1-0.4,0.1h-3.1l-1.3,7.3c-0.1,0.7-0.2,1.3-0.2,1.8s0.1,0.9,0.3,1.2c0.2,0.3,0.6,0.4,1.2,0.4
				c0.6,0,1.2-0.1,1.8-0.3c0.3-0.1,0.5,0,0.6,0.3l0.3,1.1c0.1,0.3,0,0.5-0.3,0.7c-1.2,0.6-2.5,0.8-3.9,0.8s-2.3-0.3-2.9-0.8
				c-0.5-0.6-0.8-1.3-0.8-2.3c0-0.6,0.1-1.4,0.3-2.5l1.4-7.5h-1.7c-0.3,0-0.4-0.1-0.4-0.2c0-0.1,0-0.1,0-0.2l0.2-1.6
				c0-0.2,0.1-0.3,0.2-0.4s0.2-0.1,0.4-0.1h1.7l0.7-4.2c0-0.2,0.1-0.3,0.2-0.4s0.2-0.1,0.4-0.1h2.5c0.2,0,0.3,0,0.4,0.1
				s0.1,0.2,0,0.4l-0.7,4.2H451.3z"/>
		</g>
		<g>
			<path class="st1" d="M465.6,13.2h2.2c0.2,0,0.3,0,0.4,0.1c0.1,0.1,0.1,0.2,0,0.4L466,25.6c0,0.1,0,0.2,0,0.3
				c0,0.4,0.2,0.6,0.7,0.6c0.2,0,0.5-0.1,0.8-0.2c0.3-0.1,0.6-0.1,0.7,0.2l0.3,0.5c0.1,0.1,0.1,0.2,0.1,0.3c0,0.1-0.1,0.2-0.2,0.4
				c-1.2,0.9-2.4,1.3-3.4,1.3c-1.6,0-2.4-0.8-2.4-2.3c0-0.1,0-0.1,0-0.2c-1.2,1.7-2.8,2.5-4.9,2.5c-1.6,0-2.9-0.5-3.8-1.4
				c-0.9-0.9-1.3-2.4-1.3-4.3c0-2.6,0.6-4.9,1.9-7c0.6-1,1.5-1.8,2.6-2.5c1.1-0.6,2.3-0.9,3.7-0.9c1.8,0,3.2,0.6,4.2,1.9l0.2-1.1
				c0-0.2,0.1-0.3,0.2-0.4S465.3,13.2,465.6,13.2z M464.1,17.2c-0.8-1.1-1.8-1.6-3.2-1.6c-0.9,0-1.7,0.2-2.4,0.7
				c-0.7,0.5-1.2,1.1-1.6,1.8c-0.7,1.4-1,2.9-1,4.3c0,1.4,0.2,2.4,0.7,3c0.5,0.6,1.2,0.9,2.2,0.9s1.9-0.3,2.7-0.9
				c0.8-0.6,1.3-1.4,1.5-2.5L464.1,17.2z"/>
		</g>
		<g>
			<path class="st1" d="M478.1,5.4c0.3,0,0.4,0.1,0.4,0.2c0,0.1,0,0.1,0,0.2L475,25.5c0,0.1,0,0.2,0,0.4c0,0.4,0.2,0.6,0.6,0.6
				c0.2,0,0.5-0.1,0.9-0.2c0.3-0.1,0.6-0.1,0.7,0.2l0.2,0.5c0.1,0.3,0.1,0.5-0.2,0.7c-1.1,0.9-2.2,1.3-3.4,1.3
				c-1.6,0-2.4-0.7-2.4-2.1c0-0.2,0-0.5,0.1-0.8l3.2-18.1h-1.3c-0.2,0-0.3,0-0.4-0.1c-0.1-0.1-0.1-0.2,0-0.4l0.3-1.6
				c0-0.2,0.1-0.3,0.2-0.4c0.1-0.1,0.2-0.1,0.4-0.1H478.1z"/>
		</g>
		<g>
			<path class="st1" d="M491.5,27.2c-1.7,1.2-3.5,1.8-5.7,1.8c-2.1,0-3.7-0.5-4.7-1.6s-1.5-2.6-1.5-4.5c0-2.5,0.7-4.7,2.1-6.7
				c0.7-1,1.6-1.8,2.7-2.3c1.1-0.6,2.4-0.9,3.9-0.9s2.6,0.4,3.5,1.1c0.8,0.8,1.2,1.8,1.2,3c0,1.9-0.8,3.2-2.3,4.1
				c-1.5,0.8-3.3,1.3-5.5,1.3c-0.5,0-1.2,0-2-0.1c0,0.2,0,0.4,0,0.7c0,1,0.3,1.9,0.9,2.5c0.6,0.6,1.5,0.9,2.7,0.9s2.5-0.4,3.6-1.1
				c0.3-0.1,0.5-0.1,0.7,0.2l0.5,1C491.8,26.7,491.7,27,491.5,27.2z M487.5,15.6c-1.1,0-2,0.4-2.6,1.2c-0.7,0.8-1.1,1.9-1.3,3.1
				c0.4,0.1,0.8,0.1,1.2,0.1c1.3,0,2.4-0.2,3.4-0.7c0.9-0.5,1.4-1.2,1.4-2.2c0-0.5-0.2-0.9-0.5-1.2
				C488.5,15.7,488.1,15.6,487.5,15.6z"/>
		</g>
		<g>
			<path class="st1" d="M495.3,28.6c-0.3,0-0.4-0.1-0.4-0.2c0-0.1,0-0.1,0-0.2l2.1-12.4h-1.3c-0.2,0-0.3,0-0.4-0.1
				c-0.1-0.1-0.1-0.2,0-0.4l0.3-1.6c0-0.3,0.2-0.5,0.6-0.5h3.9c0.2,0,0.3,0,0.4,0.1c0.1,0.1,0.1,0.2,0,0.4l-0.4,2.5
				c1.3-2.2,3-3.4,5.2-3.4c1.4,0,2,0.2,2,0.6c0,0.1,0,0.1,0,0.2l-0.7,4.1c0,0.3-0.2,0.5-0.6,0.5h-1.8c-0.2,0-0.3,0-0.4-0.1
				c-0.1-0.1-0.1-0.2,0-0.4l0.3-1.6c-0.3,0-0.5-0.1-0.6-0.1c-2,0-3.3,1.4-3.8,4.2l-1.4,7.8c0,0.2-0.1,0.3-0.2,0.4
				c-0.1,0.1-0.2,0.1-0.4,0.1H495.3z"/>
		</g>
	</g>
</g>
<g>
	<g>
		<g>
			<path class="st1" d="M385.4,50.6c0-1.7,0.7-3.2,2.1-4.5c1.4-1.3,3.3-1.9,5.8-1.9c1.6,0,3.2,0.2,4.7,0.7c0.3,0.1,0.4,0.2,0.4,0.4
				c0,0.1,0,0.1,0,0.2l-0.7,4.3c0,0.3-0.2,0.5-0.6,0.5h-1.7c-0.2,0-0.3,0-0.4-0.1c0-0.1,0-0.2,0-0.4l0.5-2.1c-0.8-0.5-1.8-0.7-3-0.7
				c-1.2,0-2.1,0.3-2.8,0.8c-0.7,0.5-1,1.2-1,2.1c0,0.5,0.1,0.9,0.2,1.1c0.1,0.2,0.2,0.4,0.3,0.5c0.1,0.1,0.2,0.3,0.4,0.4
				c0.2,0.2,0.3,0.3,0.4,0.4c0.1,0.1,0.3,0.2,0.5,0.3c0.3,0.2,0.5,0.3,0.5,0.3c0.7,0.4,1.2,0.6,1.6,0.8c0.3,0.2,0.7,0.4,1,0.5
				c0.3,0.2,0.7,0.5,1.2,0.8c0.5,0.4,0.9,0.7,1.1,1.1c0.7,0.9,1,2,1,3.3c0,2.1-0.8,3.8-2.2,5c-1.5,1.2-3.4,1.8-5.7,1.8
				s-4.2-0.2-5.8-0.7c-0.3-0.1-0.4-0.2-0.4-0.4c0-0.1,0-0.1,0-0.2l0.8-4.9c0-0.2,0.1-0.3,0.2-0.4s0.2-0.1,0.4-0.1h1.7
				c0.2,0,0.3,0,0.4,0.1s0.1,0.2,0,0.4l-0.7,2.9c0.8,0.5,1.9,0.8,3.3,0.8c3.1,0,4.6-1.1,4.6-3.4c0-1.1-0.4-1.9-1.2-2.5
				c-0.7-0.5-1.5-1-2.4-1.4c-0.9-0.4-1.5-0.7-1.9-0.9c-0.4-0.2-0.8-0.5-1.3-1C385.9,53.5,385.4,52.3,385.4,50.6z"/>
		</g>
		<g>
			<path class="st1" d="M411.4,64.4c-1.7,1.2-3.5,1.8-5.7,1.8c-2.1,0-3.7-0.5-4.7-1.6s-1.5-2.6-1.5-4.5c0-2.5,0.7-4.7,2.1-6.7
				c0.7-1,1.6-1.8,2.7-2.3c1.1-0.6,2.4-0.9,3.9-0.9s2.6,0.4,3.5,1.1c0.8,0.8,1.2,1.8,1.2,3c0,1.9-0.8,3.2-2.3,4.1
				c-1.5,0.8-3.3,1.3-5.5,1.3c-0.5,0-1.2,0-2-0.1c0,0.2,0,0.4,0,0.7c0,1,0.3,1.9,0.9,2.5c0.6,0.6,1.5,0.9,2.7,0.9s2.5-0.4,3.6-1.1
				c0.3-0.1,0.5-0.1,0.7,0.2l0.5,1C411.6,64,411.6,64.2,411.4,64.4z M407.4,52.8c-1.1,0-2,0.4-2.6,1.2c-0.7,0.8-1.1,1.9-1.3,3.1
				c0.4,0.1,0.8,0.1,1.2,0.1c1.3,0,2.4-0.2,3.4-0.7c0.9-0.5,1.4-1.2,1.4-2.2c0-0.5-0.2-0.9-0.5-1.2S408,52.8,407.4,52.8z"/>
		</g>
		<g>
			<path class="st1" d="M415.2,65.8c-0.3,0-0.4-0.1-0.4-0.2c0-0.1,0-0.1,0-0.2l2.1-12.4h-1.3c-0.2,0-0.3,0-0.4-0.1
				c-0.1-0.1-0.1-0.2,0-0.4l0.3-1.6c0-0.3,0.2-0.5,0.6-0.5h3.9c0.2,0,0.3,0,0.4,0.1c0.1,0.1,0.1,0.2,0,0.4l-0.4,2.5
				c1.3-2.2,3-3.4,5.2-3.4c1.4,0,2,0.2,2,0.6c0,0.1,0,0.1,0,0.2l-0.7,4.1c0,0.3-0.2,0.5-0.6,0.5h-1.8c-0.2,0-0.3,0-0.4-0.1
				c-0.1-0.1-0.1-0.2,0-0.4l0.3-1.6c-0.3,0-0.5-0.1-0.6-0.1c-2,0-3.3,1.4-3.8,4.2l-1.4,7.8c0,0.2-0.1,0.3-0.2,0.4
				c-0.1,0.1-0.2,0.1-0.4,0.1H415.2z"/>
		</g>
		<g>
			<path class="st1" d="M431.6,50.1c1.5,0,2.4,0.9,2.7,2.6l1.5,10.1c2.4-3.4,4-7.3,4.6-12c0-0.2,0.1-0.3,0.2-0.4
				c0.1-0.1,0.2-0.1,0.4-0.1h2.2c0.2,0,0.3,0,0.3,0.1c0,0.1,0.1,0.1,0.1,0.2c0,0.1,0,0.2,0,0.2c-0.3,2.4-1.1,5.1-2.4,7.9
				c-1.3,2.8-2.8,5.1-4.5,6.8c-0.2,0.2-0.5,0.3-0.8,0.3h-2.5c-0.2,0-0.3,0-0.4-0.1c-0.1-0.1-0.1-0.2-0.2-0.4l-2-12.2
				c-0.1-0.7-0.4-1-0.8-1c-0.2,0-0.5,0.1-0.9,0.2c-0.3,0.1-0.5,0-0.6-0.2l-0.2-0.6c0-0.1,0-0.2,0-0.3c0-0.1,0.1-0.3,0.3-0.4
				C429.6,50.4,430.7,50.1,431.6,50.1z"/>
		</g>
		<g>
			<path class="st1" d="M446.7,50.5h4.3c0.2,0,0.3,0,0.4,0.1s0.1,0.2,0,0.4l-2.1,11.8c0,0.1,0,0.3,0,0.4c0,0.4,0.2,0.6,0.5,0.6
				c0.2,0,0.5-0.1,0.9-0.2c0.3-0.1,0.6-0.1,0.7,0.2l0.2,0.5c0.1,0.3,0.1,0.5-0.2,0.7c-1.1,0.9-2.2,1.3-3.4,1.3
				c-1.6,0-2.4-0.7-2.4-2.1c0-0.2,0-0.5,0.1-0.8l1.8-10.3h-1.3c-0.2,0-0.3,0-0.4-0.1c-0.1-0.1-0.1-0.2,0-0.4l0.3-1.6
				C446.2,50.6,446.4,50.5,446.7,50.5z M452.2,45.5c0,0.6-0.2,1.2-0.7,1.6c-0.5,0.4-1,0.7-1.7,0.7s-1.2-0.2-1.6-0.6
				c-0.4-0.4-0.6-0.9-0.6-1.5c0-0.6,0.2-1.2,0.7-1.6s1-0.7,1.7-0.7s1.1,0.2,1.5,0.6C452,44.4,452.2,44.9,452.2,45.5z"/>
		</g>
		<g>
			<path class="st1" d="M465,55.2c0-1.6-0.9-2.4-2.7-2.4c-1.1,0-2.1,0.4-2.8,1.1c-0.7,0.8-1.2,1.6-1.5,2.6c-0.2,1-0.4,2-0.4,3.2
				c0,2.6,1.2,3.8,3.7,3.8c1.1,0,2.3-0.4,3.5-1.1c0.3-0.2,0.5-0.1,0.7,0.2l0.5,1c0.2,0.3,0.1,0.5-0.2,0.7c-1.7,1.2-3.6,1.8-5.7,1.8
				c-2.1,0-3.6-0.6-4.6-1.7s-1.5-2.7-1.5-4.6c0-2.6,0.7-4.9,2.2-6.8c1.5-1.9,3.6-2.9,6.4-2.9c1.8,0,3.1,0.5,3.9,1.4
				c0.8,0.9,1.1,2,1.1,3.3c0,0.2,0,0.4,0,0.6c0,0.3-0.2,0.5-0.5,0.5h-1.7c-0.2,0-0.3,0-0.4-0.1c-0.1-0.1-0.1-0.2-0.1-0.3
				C465,55.4,465,55.3,465,55.2z"/>
		</g>
		<g>
			<path class="st1" d="M480.6,64.4c-1.7,1.2-3.5,1.8-5.7,1.8c-2.1,0-3.7-0.5-4.7-1.6s-1.5-2.6-1.5-4.5c0-2.5,0.7-4.7,2.1-6.7
				c0.7-1,1.6-1.8,2.7-2.3c1.1-0.6,2.4-0.9,3.9-0.9s2.6,0.4,3.5,1.1c0.8,0.8,1.2,1.8,1.2,3c0,1.9-0.8,3.2-2.3,4.1
				c-1.5,0.8-3.3,1.3-5.5,1.3c-0.5,0-1.2,0-2-0.1c0,0.2,0,0.4,0,0.7c0,1,0.3,1.9,0.9,2.5c0.6,0.6,1.5,0.9,2.7,0.9s2.5-0.4,3.6-1.1
				c0.3-0.1,0.5-0.1,0.7,0.2l0.5,1C480.9,64,480.8,64.2,480.6,64.4z M476.6,52.8c-1.1,0-2,0.4-2.6,1.2c-0.7,0.8-1.1,1.9-1.3,3.1
				c0.4,0.1,0.8,0.1,1.2,0.1c1.3,0,2.4-0.2,3.4-0.7c0.9-0.5,1.4-1.2,1.4-2.2c0-0.5-0.2-0.9-0.5-1.2S477.2,52.8,476.6,52.8z"/>
		</g>
	</g>
</g>
<g>
	<g>
		<g>
			<path class="st1" d="M385,103.1c-0.3,0-0.4-0.1-0.4-0.2c0-0.1,0-0.1,0-0.2l3.1-18.1h-1.6c-0.2,0-0.3,0-0.4-0.1
				c-0.1-0.1-0.1-0.2,0-0.4l0.3-1.6c0-0.3,0.2-0.5,0.6-0.5c3.8-0.1,6-0.2,6.5-0.2c2.5,0,4.3,0.4,5.5,1.2c1.2,0.8,1.8,1.9,1.8,3.3
				c0,2.5-1.5,4.3-4.6,5.3c1.3,0.2,2.4,0.8,3.1,1.6s1.1,1.9,1.1,3c0,2-0.8,3.6-2.3,4.7c-1.5,1.1-3.5,1.7-5.8,1.9
				c-1.2,0.1-2.7,0.1-4.5,0.1H385z M392,93.3h-2.2l-1.3,7.3h1.5c1.8,0,3.2-0.2,4.3-0.7c1.4-0.5,2-1.7,2-3.5c0-1-0.4-1.8-1.1-2.3
				C394.5,93.6,393.4,93.3,392,93.3z M392.4,84.4h-1.1l-1.1,6.3h1.2c1.5,0,2.8-0.3,3.8-0.9c1-0.6,1.5-1.6,1.5-2.9c0-1-0.4-1.6-1.1-2
				S393.7,84.4,392.4,84.4z"/>
		</g>
		<g>
			<path class="st1" d="M415.3,87.7h2.2c0.2,0,0.3,0,0.4,0.1c0.1,0.1,0.1,0.2,0,0.4l-2.1,11.9c0,0.1,0,0.2,0,0.3
				c0,0.4,0.2,0.6,0.7,0.6c0.2,0,0.5-0.1,0.8-0.2c0.3-0.1,0.6-0.1,0.7,0.2l0.3,0.5c0.1,0.1,0.1,0.2,0.1,0.3s-0.1,0.2-0.2,0.4
				c-1.2,0.9-2.4,1.3-3.4,1.3c-1.6,0-2.4-0.8-2.4-2.3c0-0.1,0-0.1,0-0.2c-1.2,1.7-2.8,2.5-4.9,2.5c-1.6,0-2.9-0.5-3.8-1.4
				c-0.9-0.9-1.3-2.4-1.3-4.3c0-2.6,0.6-4.9,1.9-7c0.6-1,1.5-1.8,2.6-2.5c1.1-0.6,2.3-0.9,3.7-0.9c1.8,0,3.2,0.6,4.2,1.9l0.2-1.1
				c0-0.2,0.1-0.3,0.2-0.4C414.9,87.7,415.1,87.7,415.3,87.7z M413.8,91.7c-0.8-1.1-1.8-1.6-3.2-1.6c-0.9,0-1.7,0.2-2.4,0.7
				c-0.7,0.5-1.2,1.1-1.6,1.8c-0.7,1.4-1,2.9-1,4.3s0.2,2.4,0.7,3c0.5,0.6,1.2,0.9,2.2,0.9s1.9-0.3,2.7-0.9c0.8-0.6,1.3-1.4,1.5-2.5
				L413.8,91.7z"/>
		</g>
		<g>
			<path class="st1" d="M424.9,98.9c0,1.1,0.7,1.7,2.2,1.7c1,0,1.8-0.3,2.6-0.9c0.8-0.6,1.3-1.3,1.4-2.1l1.7-9.4
				c0-0.2,0.1-0.3,0.2-0.4c0.1-0.1,0.2-0.1,0.4-0.1h2.5c0.2,0,0.3,0,0.4,0.1c0.1,0.1,0.1,0.2,0,0.4l-2.1,11.9c0,0.1,0,0.2,0,0.3
				c0,0.4,0.2,0.6,0.6,0.6c0.2,0,0.5-0.1,0.8-0.2c0.3-0.1,0.6-0.1,0.7,0.2l0.3,0.5c0.1,0.1,0.1,0.2,0.1,0.3s-0.1,0.2-0.2,0.4
				c-1.2,0.9-2.4,1.3-3.4,1.3c-1.7,0-2.5-0.8-2.4-2.4c-1.3,1.6-3.1,2.4-5.3,2.4c-2.7,0-4.1-1.2-4.1-3.7c0-0.5,0.1-1,0.2-1.6l1.4-8
				l-1.3,0c-0.3,0-0.4-0.1-0.4-0.2c0-0.1,0-0.1,0-0.2l0.3-1.6c0-0.2,0.1-0.3,0.2-0.4c0.1-0.1,0.2-0.1,0.4-0.1h4.3
				c0.2,0,0.3,0,0.4,0.1c0.1,0.1,0.1,0.2,0,0.4l-1.6,8.7C425,97.7,424.9,98.4,424.9,98.9z"/>
		</g>
		<g>
			<path class="st1" d="M439.8,103.1c-0.3,0-0.4-0.1-0.4-0.2c0-0.1,0-0.1,0-0.2l3.5-20.2h-1.4c-0.2,0-0.3,0-0.4-0.1
				c-0.1-0.1-0.1-0.2,0-0.4l0.3-1.6c0-0.2,0.1-0.3,0.2-0.4c0.1-0.1,0.2-0.1,0.4-0.1h4.3c0.2,0,0.3,0,0.4,0.1c0.1,0.1,0.1,0.2,0,0.4
				l-2.1,12.4h0.8c2.4,0,4-1.5,4.9-4.6c0.1-0.3,0.3-0.5,0.6-0.5h2.4c0.2,0,0.3,0,0.3,0.1c0,0.1,0,0.2,0,0.4c-0.4,1.3-1,2.5-2,3.4
				c-0.9,0.9-2,1.5-3.3,1.7c0.9,0.1,1.6,0.4,2,1s0.7,1.4,0.9,2.7l0.4,3.1c0.1,0.7,0.3,1.1,0.8,1.1c0.3,0,0.6-0.1,0.9-0.2
				c0.3-0.1,0.5-0.2,0.5-0.2c0.1,0,0.2,0.1,0.2,0.3l0.2,0.5c0,0.1,0.1,0.2,0.1,0.3c0,0.1-0.1,0.2-0.2,0.3c-1.1,0.7-2.1,1.1-3,1.1
				s-1.6-0.2-2-0.6s-0.6-1.1-0.8-2l-0.5-3.4c-0.1-0.9-0.3-1.5-0.7-1.8c-0.3-0.3-1-0.5-2-0.5h-1.1l-1.3,7.4c0,0.3-0.2,0.5-0.6,0.5
				H439.8z"/>
		</g>
		<g>
			<path class="st1" d="M469.2,87.7h2.2c0.2,0,0.3,0,0.4,0.1c0.1,0.1,0.1,0.2,0,0.4l-2.1,11.9c0,0.1,0,0.2,0,0.3
				c0,0.4,0.2,0.6,0.7,0.6c0.2,0,0.5-0.1,0.8-0.2c0.3-0.1,0.6-0.1,0.7,0.2l0.3,0.5c0.1,0.1,0.1,0.2,0.1,0.3s-0.1,0.2-0.2,0.4
				c-1.2,0.9-2.4,1.3-3.4,1.3c-1.6,0-2.4-0.8-2.4-2.3c0-0.1,0-0.1,0-0.2c-1.2,1.7-2.8,2.5-4.9,2.5c-1.6,0-2.9-0.5-3.8-1.4
				c-0.9-0.9-1.3-2.4-1.3-4.3c0-2.6,0.6-4.9,1.9-7c0.6-1,1.5-1.8,2.6-2.5c1.1-0.6,2.3-0.9,3.7-0.9c1.8,0,3.2,0.6,4.2,1.9l0.2-1.1
				c0-0.2,0.1-0.3,0.2-0.4C468.9,87.7,469,87.7,469.2,87.7z M467.7,91.7c-0.8-1.1-1.8-1.6-3.2-1.6c-0.9,0-1.7,0.2-2.4,0.7
				c-0.7,0.5-1.2,1.1-1.6,1.8c-0.7,1.4-1,2.9-1,4.3s0.2,2.4,0.7,3c0.5,0.6,1.2,0.9,2.2,0.9s1.9-0.3,2.7-0.9c0.8-0.6,1.3-1.4,1.5-2.5
				L467.7,91.7z"/>
		</g>
		<g>
			<path class="st1" d="M479.7,101.1c1.9,0,2.9-0.7,2.9-2c0-0.6-0.2-1.1-0.7-1.4s-1-0.6-1.8-0.8c-0.8-0.2-1.3-0.4-1.5-0.5
				c-0.2-0.1-0.6-0.3-1.1-0.5c-0.5-0.3-0.9-0.5-1.1-0.8c-0.6-0.8-0.9-1.7-0.9-2.7c0-1.6,0.6-2.8,1.7-3.7c1.1-0.9,2.6-1.3,4.4-1.3
				s3.1,0.4,3.9,1.2c0.8,0.8,1.2,1.7,1.2,2.9c0,0.4,0,0.7-0.1,0.7c-0.1,0.1-0.2,0.1-0.4,0.1h-1.8c-0.2,0-0.3,0-0.4-0.1
				c-0.1-0.1-0.1-0.2-0.1-0.4c0-0.7-0.2-1.2-0.6-1.5c-0.4-0.3-1.1-0.5-2-0.5c-1.7,0-2.5,0.6-2.5,1.8c0,0.5,0.2,1,0.7,1.3
				s1.1,0.6,1.9,0.9c0.8,0.3,1.4,0.5,1.8,0.7c0.4,0.2,0.8,0.5,1.3,0.8c1,0.7,1.5,1.8,1.5,3.3c0,1.5-0.6,2.7-1.8,3.6
				c-1.2,0.9-2.7,1.3-4.5,1.3c-3.7,0-5.6-1.5-5.7-4.4c0-0.2,0-0.3,0.1-0.4c0.1-0.1,0.2-0.1,0.4-0.1h1.7c0.2,0,0.3,0,0.4,0.1
				c0.1,0.1,0.1,0.2,0.2,0.4c0.1,0.7,0.3,1.2,0.8,1.6S478.6,101.1,479.7,101.1z"/>
		</g>
		<g>
			<path class="st1" d="M498.2,87.7c0.3,0,0.4,0.1,0.4,0.2c0,0.1,0,0.1,0,0.2l-0.3,1.6c0,0.2-0.1,0.3-0.2,0.4
				c-0.1,0.1-0.2,0.1-0.4,0.1h-3.1l-1.3,7.3c-0.1,0.7-0.2,1.3-0.2,1.8c0,0.5,0.1,0.9,0.3,1.2c0.2,0.3,0.6,0.4,1.2,0.4
				c0.6,0,1.2-0.1,1.8-0.3c0.3-0.1,0.5,0,0.6,0.3l0.3,1.1c0.1,0.3,0,0.5-0.3,0.7c-1.2,0.6-2.5,0.8-3.9,0.8s-2.3-0.3-2.9-0.8
				c-0.5-0.6-0.8-1.3-0.8-2.3c0-0.6,0.1-1.4,0.3-2.5l1.4-7.5h-1.7c-0.3,0-0.4-0.1-0.4-0.2c0-0.1,0-0.1,0-0.2l0.2-1.6
				c0-0.2,0.1-0.3,0.2-0.4c0.1-0.1,0.2-0.1,0.4-0.1h1.7l0.7-4.2c0-0.2,0.1-0.3,0.2-0.4c0.1-0.1,0.2-0.1,0.4-0.1h2.5
				c0.2,0,0.3,0,0.4,0.1c0.1,0.1,0.1,0.2,0,0.4l-0.7,4.2H498.2z"/>
		</g>
		<g>
			<path class="st1" d="M511.3,101.7c-1.7,1.2-3.5,1.8-5.7,1.8c-2.1,0-3.7-0.5-4.7-1.6c-1-1.1-1.5-2.6-1.5-4.5
				c0-2.5,0.7-4.7,2.1-6.7c0.7-1,1.6-1.8,2.7-2.3s2.4-0.9,3.9-0.9s2.6,0.4,3.5,1.1c0.8,0.8,1.2,1.8,1.2,3c0,1.9-0.8,3.2-2.3,4.1
				c-1.5,0.8-3.3,1.3-5.5,1.3c-0.5,0-1.2,0-2-0.1c0,0.2,0,0.4,0,0.7c0,1,0.3,1.9,0.9,2.5c0.6,0.6,1.5,0.9,2.7,0.9s2.5-0.4,3.6-1.1
				c0.3-0.1,0.5-0.1,0.7,0.2l0.5,1C511.6,101.2,511.6,101.4,511.3,101.7z M507.3,90c-1.1,0-2,0.4-2.6,1.2c-0.7,0.8-1.1,1.9-1.3,3.1
				c0.4,0.1,0.8,0.1,1.2,0.1c1.3,0,2.4-0.2,3.4-0.7c0.9-0.5,1.4-1.2,1.4-2.2c0-0.5-0.2-0.9-0.5-1.2C508.4,90.2,507.9,90,507.3,90z"
				/>
		</g>
		<g>
			<path class="st1" d="M515.1,103.1c-0.3,0-0.4-0.1-0.4-0.2c0-0.1,0-0.1,0-0.2l2.2-12.4h-1.3c-0.2,0-0.3,0-0.4-0.1
				c-0.1-0.1-0.1-0.2,0-0.4l0.2-1.6c0-0.2,0.1-0.3,0.2-0.4c0.1-0.1,0.2-0.1,0.4-0.1h3.9c0.2,0,0.3,0,0.4,0.1c0.1,0.1,0.1,0.2,0,0.4
				L520,90c1.5-1.7,3.3-2.6,5.5-2.6c1.3,0,2.3,0.3,3.1,1c0.7,0.7,1.1,1.6,1.1,2.9c0,0.6-0.1,1.2-0.2,2L528,100c0,0.1,0,0.3,0,0.4
				c0,0.4,0.2,0.6,0.5,0.6c0.2,0,0.5-0.1,0.9-0.2c0.3-0.1,0.6-0.1,0.7,0.2l0.2,0.5c0.1,0.1,0.1,0.2,0.1,0.3s-0.1,0.2-0.2,0.4
				c-1.1,0.9-2.2,1.3-3.4,1.3c-1.6,0-2.4-0.7-2.4-2c0-0.3,0-0.6,0.1-0.9l1.3-6.5c0.1-0.8,0.2-1.4,0.2-2c0-1.2-0.7-1.8-2.1-1.8
				c-1,0-2,0.3-2.7,0.9c-0.8,0.6-1.3,1.3-1.4,2.1l-1.6,9.3c0,0.2-0.1,0.3-0.2,0.4c-0.1,0.1-0.2,0.1-0.4,0.1H515.1z"/>
		</g>
	</g>
</g>
<g>
	<g>
		<defs>
			<rect id="SVGID_7_" x="-446.3" y="-305.7" width="1366" height="768"/>
		</defs>
		<clipPath id="SVGID_8_">
			<use xlink:href="#SVGID_7_"  style="overflow:visible;"/>
		</clipPath>
	</g>
</g>
</svg>
